<svg xmlns="http://www.w3.org/2000/svg" width="16" height="15" viewBox="0 0 16 15" fill="none">
  <path fill-rule="evenodd" clip-rule="evenodd" d="M8.57508 12.6079C12.7249 12.3846 16 9.76293 16 6.56168C16 3.21391 12.4183 0.5 8 0.5C3.58172 0.5 0 3.21391 0 6.56168C0 9.00169 1.90267 11.105 4.64515 12.0662C4.46086 12.8806 3.46143 14.3072 0.666667 14.3072C2.77778 14.6439 7.33333 14.7786 8.66667 12.6234L8.57508 12.6079Z" fill="#C9C9C9"/>
  <path d="M5.33324 6.56177C5.33324 7.30572 4.73629 7.90881 3.99991 7.90881C3.26353 7.90881 2.66657 7.30572 2.66657 6.56177C2.66657 5.81782 3.26353 5.21473 3.99991 5.21473C4.73629 5.21473 5.33324 5.81782 5.33324 6.56177Z" fill="white"/>
  <path d="M9.33331 6.56186C9.33331 7.30581 8.73636 7.9089 7.99998 7.9089C7.2636 7.9089 6.66664 7.30581 6.66664 6.56186C6.66664 5.81791 7.2636 5.21482 7.99998 5.21482C8.73636 5.21482 9.33331 5.81791 9.33331 6.56186Z" fill="white"/>
  <path d="M13.3333 6.56186C13.3333 7.30581 12.7364 7.9089 12 7.9089C11.2636 7.9089 10.6666 7.30581 10.6666 6.56186C10.6666 5.81791 11.2636 5.21482 12 5.21482C12.7364 5.21482 13.3333 5.81791 13.3333 6.56186Z" fill="white"/>
</svg>