<svg width="18" height="18" viewBox="0 0 18 18" fill="none" xmlns="http://www.w3.org/2000/svg">
<circle cx="9" cy="9" r="9" fill="#E7F6F8"/>
<path d="M13.3499 4.65015C13.1497 4.44995 12.8251 4.44995 12.6249 4.65015L9 8.27503L5.37512 4.65015C5.17493 4.44995 4.85034 4.44995 4.65015 4.65015C4.44995 4.85034 4.44995 5.17493 4.65015 5.37512L8.27503 9L4.65015 12.6249C4.44995 12.8251 4.44995 13.1497 4.65015 13.3499C4.85035 13.55 5.17493 13.55 5.37512 13.3499L9 9.72498L12.6249 13.3499C12.8251 13.55 13.1497 13.55 13.3499 13.3499C13.55 13.1497 13.55 12.8251 13.3499 12.6249L9.72498 9L13.3499 5.37512C13.55 5.17493 13.55 4.85034 13.3499 4.65015Z" fill="white"/>
</svg>
