<svg xmlns="http://www.w3.org/2000/svg" width="61" height="60" viewBox="0 0 61 60" fill="none">
  <path d="M60.5 30C60.5 46.5685 47.0685 60 30.5 60C13.9315 60 0.5 46.5685 0.5 30C0.5 13.4315 13.9315 0 30.5 0C47.0685 0 60.5 13.4315 60.5 30Z" fill="url(#paint0_radial_4567_13648)"/>
  <path fill-rule="evenodd" clip-rule="evenodd" d="M30.8333 25C30.5879 25 30.3889 25.199 30.3889 25.4444V29.8889H25.9444C25.699 29.8889 25.5 30.0879 25.5 30.3333C25.5 30.5788 25.699 30.7778 25.9444 30.7778H30.3889V35.2222C30.3889 35.4677 30.5879 35.6667 30.8333 35.6667C31.0788 35.6667 31.2778 35.4677 31.2778 35.2222V30.7778H35.7222C35.9677 30.7778 36.1667 30.5788 36.1667 30.3333C36.1667 30.0879 35.9677 29.8889 35.7222 29.8889H31.2778V25.4444C31.2778 25.199 31.0788 25 30.8333 25Z" fill="white"/>
  <defs>
    <radialGradient id="paint0_radial_4567_13648" cx="0" cy="0" r="1" gradientUnits="userSpaceOnUse" gradientTransform="translate(30.5 30) rotate(90) scale(30)">
      <stop stop-color="#059EAF"/>
      <stop offset="1" stop-color="#469BAB" stop-opacity="0"/>
    </radialGradient>
  </defs>
</svg>