<svg width="210" height="297" viewBox="0 0 210 297" fill="none" xmlns="http://www.w3.org/2000/svg">
<rect x="210" y="297" width="210" height="297" rx="10" transform="rotate(-180 210 297)" fill="#E7F6F8"/>
<path d="M67.9508 118L123.893 118C125.459 118 126.731 119.361 126.731 121.042L126.731 122.871C126.731 124.552 125.459 125.914 123.893 125.914L67.9508 125.914C66.3855 125.914 65.1133 124.552 65.1133 122.871L65.1133 121.042C65.1133 119.361 66.3855 118 67.9508 118Z" fill="#059EAF"/>
<path d="M95.8421 131.151C109.075 131.151 116.518 137.212 121.896 156.762L127.85 178.6L107.505 178.6L104.36 159.735C101.877 144.644 99.233 139.953 95.9225 139.953C92.6121 139.953 90.2994 144.297 87.6511 159.503L84.3406 178.6L64 178.6L70.1197 156.878C75.6624 137.212 82.6097 131.151 95.8421 131.151Z" fill="#059EAF"/>
<path d="M140.392 178.6L146.394 178.6L146.394 169.496C146.394 168.037 145.173 166.847 143.688 166.847L137.096 166.847C135.606 166.847 134.391 168.037 134.391 169.496L134.391 175.951C134.391 177.41 135.606 178.6 137.096 178.6L140.392 178.6Z" fill="#059EAF"/>
</svg>
