<svg xmlns="http://www.w3.org/2000/svg" width="15" height="16" viewBox="0 0 15 16" fill="none">
  <path d="M0.5 2C0.5 1.17157 1.17082 0.5 1.99833 0.5H8.7408C9.56831 0.5 10.2391 1.17157 10.2391 2V14C10.2391 14.8284 9.56831 15.5 8.7408 15.5H1.99833C1.17082 15.5 0.5 14.8284 0.5 14V2Z" fill="#DCDCDC"/>
  <path fill-rule="evenodd" clip-rule="evenodd" d="M11.0511 4.42615C11.261 4.19342 11.6036 4.19099 11.8163 4.42072L14.0506 6.83429C14.6457 7.47721 14.6457 8.5228 14.0506 9.16571L11.8163 11.5793C11.6036 11.809 11.261 11.8066 11.0511 11.5739C10.8412 11.3411 10.8434 10.9662 11.0561 10.7365L13.0412 8.59211H5.29888C5.00005 8.59211 4.75781 8.32701 4.75781 8C4.75781 7.67299 5.00005 7.4079 5.29888 7.4079H13.0412L11.0561 5.26349C10.8434 5.03376 10.8412 4.65887 11.0511 4.42615Z" fill="#959595"/>
</svg>