<svg xmlns="http://www.w3.org/2000/svg" width="40" height="40" viewBox="0 0 40 40" fill="none">
  <path d="M0 7.14286C0 3.19797 3.19797 0 7.14286 0H32.8571C36.802 0 40 3.19797 40 7.14286V32.8571C40 36.802 36.802 40 32.8571 40H7.14286C3.19797 40 0 36.802 0 32.8571V7.14286Z" fill="#41B4C0"/>
  <path fill-rule="evenodd" clip-rule="evenodd" d="M21.2944 9.1464C21.0992 8.9512 20.7826 8.9512 20.5873 9.1464C20.3921 9.3416 20.3921 9.65809 20.5873 9.85329L23.7338 12.9988L12.5 12.9988C10.567 12.9988 9 14.5653 9 16.4977V23.4956C9 25.428 10.567 26.9945 12.5 26.9945H12.7353C13.0114 26.9945 13.2353 26.7707 13.2353 26.4946C13.2353 26.2186 13.0114 25.9948 12.7353 25.9948H12.5C11.1193 25.9948 10 24.8759 10 23.4956V16.4977C10 15.1174 11.1193 13.9985 12.5 13.9985L23.8655 13.9985L20.5873 17.2757C20.3921 17.4709 20.3921 17.7873 20.5873 17.9825C20.7826 18.1777 21.0992 18.1777 21.2944 17.9825L24.83 14.4481C25.3181 13.9601 25.3181 13.1689 24.83 12.6809L21.2944 9.1464ZM18.8998 30.8536C19.0951 31.0488 19.4117 31.0488 19.607 30.8536C19.8022 30.6584 19.8022 30.3419 19.607 30.1467L16.4538 26.9945L27.5 26.9945C29.433 26.9945 31 25.428 31 23.4956L31 16.4977C31 14.5653 29.433 12.9988 27.5 12.9988H27.2647C26.9886 12.9988 26.7647 13.2226 26.7647 13.4986C26.7647 13.7747 26.9886 13.9985 27.2647 13.9985H27.5C28.8807 13.9985 30 15.1174 30 16.4977L30 23.4956C30 24.8759 28.8807 25.9948 27.5 25.9948L16.3355 25.9948L19.6069 22.7243C19.8022 22.5291 19.8022 22.2127 19.6069 22.0175C19.4117 21.8223 19.0951 21.8223 18.8998 22.0175L15.3643 25.5519C15.1026 25.8136 14.9812 26.1624 15.0001 26.5049C15.0005 26.5249 15.0021 26.5446 15.0048 26.5639C15.0331 26.8397 15.1529 27.1078 15.3643 27.3191L18.8998 30.8536Z" fill="#E7F6F8"/>
</svg>