<svg xmlns="http://www.w3.org/2000/svg" width="30" height="30" viewBox="0 0 70 53" fill="none">
<path d="M3.35899 0H50.8869C52.2168 0 53.2976 1.18127 53.2976 2.63977V4.22684C53.2976 5.68535 52.2168 6.86661 50.8869 6.86661H3.35899C2.02906 6.86661 0.948242 5.68535 0.948242 4.22684V2.63977C0.948242 1.18127 2.02906 0 3.35899 0Z" fill="#059EAF"/>
<path d="M27.0526 11.4121C38.2947 11.4121 44.6189 16.6716 49.1873 33.6352L54.2458 52.5837H36.9608L34.2889 36.2147C32.1795 23.1203 29.9334 19.0502 27.1209 19.0502C24.3084 19.0502 22.3436 22.819 20.0936 36.0138L17.281 52.5837H0L5.19918 33.7356C9.90817 16.6716 15.8105 11.4121 27.0526 11.4121Z" fill="#059EAF"/>
<path d="M64.9015 52.5842H70.0002V44.685C70.0002 43.4193 68.9636 42.3867 67.702 42.3867H62.101C60.8353 42.3867 59.8027 43.4193 59.8027 44.685V50.2859C59.8027 51.5516 60.8353 52.5842 62.101 52.5842H64.9015Z" fill="#059EAF"/>
</svg>