<svg width="59" height="46" viewBox="0 0 59 46" fill="none" xmlns="http://www.w3.org/2000/svg">
<path d="M0.329678 2.87099C2.12901 0.615856 4.53066 0.304964 6.80252 0.392895C9.93531 0.51411 13.1348 0.848782 16.155 1.65977C29.9938 5.37588 40.286 13.8456 47.5404 26.0851C49.4076 29.2352 50.7824 32.678 52.531 36.2913C55.0622 33.4486 55.4838 29.4311 57.9686 26.2955C58.8958 27.7132 58.4616 28.9778 58.0983 30.1016C56.6764 34.501 55.2124 38.8895 53.625 43.2307C52.8543 45.3381 51.8561 45.7784 49.9762 44.8545C46.0882 42.9436 43.065 40.072 41.1716 36.11C41.0899 35.9389 41.299 35.6285 41.4491 35.1283C45.0846 34.8911 45.7153 39.4383 49.1677 40.0489C48.5856 34.2232 45.9578 29.422 42.8558 24.8501C39.6521 20.1281 36.0333 15.7547 31.4014 12.3281C26.8926 8.99264 21.8728 6.69157 16.6232 4.8082C11.3622 2.9208 5.96579 2.39248 0.329678 2.87099Z" fill="white"/>
</svg>
