<svg xmlns="http://www.w3.org/2000/svg" width="40" height="40" viewBox="0 0 40 40" fill="none">
  <path d="M0 7.14286C0 3.19797 3.19797 0 7.14286 0H32.8571C36.802 0 40 3.19797 40 7.14286V32.8571C40 36.802 36.802 40 32.8571 40H7.14286C3.19797 40 0 36.802 0 32.8571V7.14286Z" fill="#41B4C0"/>
  <path fill-rule="evenodd" clip-rule="evenodd" d="M14.2948 10.8324C12.382 10.8324 10.8314 12.383 10.8314 14.2958V25.7059C10.8314 27.6187 12.382 29.1693 14.2948 29.1693H25.7049C27.6177 29.1693 29.1683 27.6187 29.1683 25.7059V17.379C29.1683 16.7127 28.9036 16.0736 28.4324 15.6024L24.3983 11.5683C23.9271 11.0971 23.288 10.8324 22.6217 10.8324H14.2948ZM10.1514 14.2958C10.1514 12.0074 12.0064 10.1523 14.2948 10.1523H22.6217C23.4684 10.1523 24.2804 10.4887 24.8792 11.0874L28.9133 15.1215C29.512 15.7203 29.8483 16.5323 29.8483 17.379V25.7059C29.8483 27.9943 27.9933 29.8494 25.7049 29.8494H14.2948C12.0064 29.8494 10.1514 27.9943 10.1514 25.7059V14.2958Z" fill="#E7F6F8"/>
  <path fill-rule="evenodd" clip-rule="evenodd" d="M10 14.2949C10 11.9229 11.9229 10 14.2949 10H22.6218C23.5087 10 24.3593 10.3523 24.9864 10.9795L29.0205 15.0136C29.6477 15.6407 30 16.4913 30 17.3782V25.7051C30 28.0772 28.0771 30.0001 25.7051 30.0001H14.2949C11.9229 30.0001 10 28.0772 10 25.7051V14.2949ZM14.2949 10.303C12.0903 10.303 10.303 12.0903 10.303 14.2949V25.7051C10.303 27.9098 12.0903 29.697 14.2949 29.697H25.7051C27.9097 29.697 29.697 27.9098 29.697 25.7051V17.3782C29.697 16.5717 29.3766 15.7982 28.8063 15.2278L24.7722 11.1937C24.2019 10.6234 23.4284 10.303 22.6218 10.303H14.2949ZM14.2949 10.9831C12.4658 10.9831 10.9831 12.4658 10.9831 14.2949V25.7051C10.9831 27.5342 12.4658 29.017 14.2949 29.017H25.7051C27.5342 29.017 29.0169 27.5342 29.0169 25.7051V17.3782C29.0169 16.752 28.7682 16.1515 28.3254 15.7087L24.2913 11.6746C23.8485 11.2318 23.248 10.9831 22.6218 10.9831H14.2949ZM10.68 14.2949C10.68 12.2985 12.2985 10.6801 14.2949 10.6801H22.6218C23.3284 10.6801 24.006 10.9607 24.5056 11.4603L28.5397 15.4944C29.0393 15.994 29.32 16.6717 29.32 17.3782V25.7051C29.32 27.7016 27.7015 29.32 25.7051 29.32H14.2949C12.2985 29.32 10.68 27.7016 10.68 25.7051V14.2949Z" fill="#E7F6F8"/>
  <path fill-rule="evenodd" clip-rule="evenodd" d="M13.9546 22.8531C13.9546 21.615 14.9582 20.6113 16.1963 20.6113H23.8031C25.0411 20.6113 26.0448 21.615 26.0448 22.8531V29.849H13.9546V22.8531ZM16.1963 21.2914C15.3338 21.2914 14.6346 21.9906 14.6346 22.8531V29.169H25.3647V22.8531C25.3647 21.9906 24.6656 21.2914 23.8031 21.2914H16.1963Z" fill="#E7F6F8"/>
  <path fill-rule="evenodd" clip-rule="evenodd" d="M13.8032 22.8522C13.8032 21.5305 14.8747 20.459 16.1965 20.459H23.8032C25.125 20.459 26.1965 21.5305 26.1965 22.8522V29.9997H13.8032V22.8522ZM16.1965 20.762C15.0421 20.762 14.1063 21.6978 14.1063 22.8522V29.6967H25.8934V22.8522C25.8934 21.6978 24.9576 20.762 23.8032 20.762H16.1965ZM16.1965 21.4421C15.4176 21.4421 14.7863 22.0734 14.7863 22.8522V29.0166H25.2134V22.8522C25.2134 22.0734 24.582 21.4421 23.8032 21.4421H16.1965ZM14.4833 22.8522C14.4833 21.9061 15.2503 21.139 16.1965 21.139H23.8032C24.7494 21.139 25.5164 21.9061 25.5164 22.8522V29.3197H14.4833V22.8522Z" fill="#E7F6F8"/>
</svg>