<svg xmlns="http://www.w3.org/2000/svg" width="10" height="10" viewBox="0 0 10 10" fill="none">
  <path d="M10 5C10 7.76142 7.76142 10 5 10C2.23858 10 0 7.76142 0 5C0 2.23858 2.23858 0 5 0C7.76142 0 10 2.23858 10 5Z" fill="#C7C7C7"/>
  <path fill-rule="evenodd" clip-rule="evenodd" d="M7.35623 2.64297C7.24775 2.53449 7.07187 2.53449 6.96339 2.64297L4.99909 4.60727L3.03472 2.6429C2.92625 2.53442 2.75037 2.53442 2.64189 2.6429C2.53341 2.75138 2.53341 2.92726 2.64189 3.03574L4.60626 5.00011L2.64219 6.96418C2.53371 7.07266 2.53371 7.24854 2.64219 7.35702C2.75066 7.4655 2.92654 7.4655 3.03502 7.35702L4.99909 5.39295L6.9631 7.35695C7.07157 7.46543 7.24745 7.46543 7.35593 7.35695C7.46441 7.24847 7.46441 7.07259 7.35593 6.96411L5.39193 5.00011L7.35623 3.03581C7.46471 2.92733 7.46471 2.75145 7.35623 2.64297Z" fill="white"/>
</svg>