<svg width="10" height="10" viewBox="0 0 10 10" fill="none" xmlns="http://www.w3.org/2000/svg">
<path d="M9.83317 0.166831C9.61073 -0.0556091 9.25008 -0.0556094 9.02764 0.166831L5 4.19447L0.972359 0.16683C0.749918 -0.0556101 0.389271 -0.0556101 0.166831 0.16683C-0.0556098 0.389271 -0.0556104 0.749918 0.16683 0.972358L4.19447 5L0.166832 9.02764C-0.0556087 9.25008 -0.0556087 9.61073 0.166832 9.83317C0.389272 10.0556 0.74992 10.0556 0.97236 9.83317L5 5.80553L9.02764 9.83317C9.25008 10.0556 9.61073 10.0556 9.83317 9.83317C10.0556 9.61073 10.0556 9.25008 9.83317 9.02764L5.80553 5L9.83317 0.97236C10.0556 0.749919 10.0556 0.389272 9.83317 0.166831Z" fill="#A6A6A6"/>
</svg>
