<svg width="16" height="14" viewBox="0 0 16 14" fill="none" xmlns="http://www.w3.org/2000/svg">
<path fill-rule="evenodd" clip-rule="evenodd" d="M8.57508 12.1079C12.7249 11.8846 16 9.26294 16 6.06168C16 2.71391 12.4183 0 8 0C3.58172 0 0 2.71391 0 6.06168C0 8.50169 1.90267 10.605 4.64515 11.5662C4.46086 12.3806 3.46143 13.8072 0.666667 13.8072C2.77778 14.1439 7.33333 14.2786 8.66667 12.1234L8.57508 12.1079Z" fill="white"/>
<path d="M5.33324 6.06177C5.33324 6.80572 4.73629 7.40881 3.99991 7.40881C3.26353 7.40881 2.66657 6.80572 2.66657 6.06177C2.66657 5.31782 3.26353 4.71473 3.99991 4.71473C4.73629 4.71473 5.33324 5.31782 5.33324 6.06177Z" fill="#1CB09E"/>
<path d="M9.33331 6.06186C9.33331 6.80581 8.73636 7.4089 7.99998 7.4089C7.2636 7.4089 6.66664 6.80581 6.66664 6.06186C6.66664 5.31791 7.2636 4.71482 7.99998 4.71482C8.73636 4.71482 9.33331 5.31791 9.33331 6.06186Z" fill="#1CB09E"/>
<path d="M13.3333 6.06186C13.3333 6.80581 12.7364 7.4089 12 7.4089C11.2636 7.4089 10.6666 6.80581 10.6666 6.06186C10.6666 5.31791 11.2636 4.71482 12 4.71482C12.7364 4.71482 13.3333 5.31791 13.3333 6.06186Z" fill="#1CB09E"/>
</svg>
