<svg width="12" height="18" viewBox="0 0 12 18" fill="none" xmlns="http://www.w3.org/2000/svg">
<path d="M9.74259 16.5C9.74259 17.3284 9.02563 18 8.14122 18H4.26579C3.38137 18 2.66441 17.3284 2.66441 16.5V15.5999L9.74259 15.5999V16.5Z" fill="#12C9B3"/>
<path d="M5.11448 7.01521C4.58621 7.29201 4.23089 7.80877 4.23089 8.40058C4.23089 9.28426 5.02314 10.0006 6.00043 10.0006C6.97772 10.0006 7.76997 9.28426 7.76997 8.40058C7.76997 7.80789 7.41359 7.29047 6.88402 7.01397L6.88402 1.39881e-07L11.9037 8.69944C12.0745 8.99551 12.0139 9.36192 11.7554 9.59566L10.0275 11.158C9.71491 11.4407 9.53834 11.8302 9.53834 12.2372V14.0004H2.46016L2.46016 12.3186C2.46016 11.9041 2.27701 11.508 1.95418 11.2245L0.253019 9.7302C-0.0108681 9.49841 -0.0760493 9.12967 0.0939956 8.83057L5.11448 0L5.11448 7.01521Z" fill="#12C9B3"/>
</svg>
