<svg width="15" height="16" viewBox="0 0 15 16" fill="none" xmlns="http://www.w3.org/2000/svg">
<path fill-rule="evenodd" clip-rule="evenodd" d="M7.1377 3.00939C6.48431 2.8444 6 2.24334 6 1.52712C6 0.683713 6.67157 0 7.5 0C8.32843 0 9 0.683713 9 1.52712C9 2.24334 8.51569 2.8444 7.8623 3.00939L9.32606 5.91318L12.2812 3.9446C12.1042 3.69395 12 3.38648 12 3.05423C12 2.21083 12.6716 1.52712 13.5 1.52712C14.3284 1.52712 15 2.21083 15 3.05423C15 3.89763 14.3284 4.58135 13.5 4.58135C13.322 4.58135 13.1513 4.5498 12.993 4.4919L12.6109 11.4534H13.5C13.9142 11.4534 14.25 11.7952 14.25 12.2169V13.744H0.75V12.2169C0.75 11.7952 1.08578 11.4534 1.5 11.4534H2.3454L1.96417 4.50682C1.81801 4.5552 1.662 4.58135 1.5 4.58135C0.671572 4.58135 0 3.89763 0 3.05423C0 2.21083 0.671572 1.52712 1.5 1.52712C2.32843 1.52712 3 2.21083 3 3.05423C3 3.39514 2.89027 3.70996 2.70481 3.96409L5.66306 5.93475L7.1377 3.00939Z" fill="#12C9B3"/>
<path d="M14.25 14.4729H0.75V15.2712C0.75 15.6737 1.07052 16 1.46591 16H13.5341C13.9295 16 14.25 15.6737 14.25 15.2712V14.4729Z" fill="#12C9B3"/>
</svg>
