<svg width="12" height="16" viewBox="0 0 12 16" fill="none" xmlns="http://www.w3.org/2000/svg">
<path fill-rule="evenodd" clip-rule="evenodd" d="M1.5 5C0.671573 5 0 5.67157 0 6.5V14.5C0 15.3284 0.671573 16 1.5 16H10.5C11.3284 16 12 15.3284 12 14.5V6.5C12 5.67157 11.3284 5 10.5 5H1.5ZM6 8.20833C5.44772 8.20833 5 8.65605 5 9.20833V11.7917C5 12.344 5.44772 12.7917 6 12.7917C6.55228 12.7917 7 12.344 7 11.7917V9.20833C7 8.65605 6.55228 8.20833 6 8.20833Z" fill="#D9D9D9"/>
<path d="M9.49424 5C9.38486 2.63644 7.73345 1 5.99999 1C4.26654 1 2.61512 2.63644 2.50575 5H1.505C1.61685 2.21659 3.58655 0 5.99999 0C8.41344 0 10.3831 2.21659 10.495 5H9.49424Z" fill="#D9D9D9"/>
</svg>
