<svg width="30" height="24" viewBox="0 0 30 24" fill="none" xmlns="http://www.w3.org/2000/svg">
<path d="M1.43943 0.732422H21.8085C22.3785 0.732422 22.8417 1.23868 22.8417 1.86375V2.54392C22.8417 3.169 22.3785 3.67525 21.8085 3.67525H1.43943C0.869458 3.67525 0.40625 3.169 0.40625 2.54392V1.86375C0.40625 1.23868 0.869458 0.732422 1.43943 0.732422Z" fill="white"/>
<path d="M11.594 5.62305C16.412 5.62305 19.1224 7.87709 21.0802 15.1472L23.2482 23.268H15.8403L14.6952 16.2527C13.7912 10.6408 12.8286 8.89649 11.6232 8.89649C10.4179 8.89649 9.57582 10.5117 8.61153 16.1666L7.40615 23.268H0L2.22822 15.1903C4.24636 7.87709 6.77592 5.62305 11.594 5.62305Z" fill="white"/>
<path d="M27.8151 23.2678H30.0002V19.8824C30.0002 19.34 29.556 18.8975 29.0153 18.8975H26.6148C26.0724 18.8975 25.6299 19.34 25.6299 19.8824V22.2828C25.6299 22.8253 26.0724 23.2678 26.6148 23.2678H27.8151Z" fill="white"/>
</svg>
