<svg width="597" height="182" viewBox="0 0 597 182" fill="none" xmlns="http://www.w3.org/2000/svg">
<path d="M509.769 115.467C497.543 135.415 488.844 154.932 449.516 135.793C435.525 128.984 463.116 163.98 474.932 166.137C486.75 168.294 498.995 162.913 507.877 154.932C516.758 146.951 522.929 136.599 529.178 126.534C538.728 111.16 599.007 54.9738 569.847 40.5984C540.686 26.223 517.208 104.784 509.763 115.464L509.769 115.467Z" fill="#FF84C7"/>
<path d="M507.504 86.2495C508.858 63.317 505.534 39.9563 496.147 18.9C495.048 16.4387 493.869 14.0167 492.599 11.6399C491.438 9.46218 490.21 7.23921 488.405 5.51996C484.431 1.73458 478.916 2.40419 475.362 6.43689C471.183 11.1814 471.021 17.2622 471.114 23.2705C471.217 29.7433 471.454 36.2101 471.836 42.6739C472.679 56.8985 474.228 71.0748 476.476 85.1425C476.668 86.346 478.17 87.0246 479.253 86.723C480.534 86.3641 481.022 85.1546 480.829 83.939C478.982 72.3838 477.64 60.7502 476.777 49.0774C476.343 43.235 476.03 37.3865 475.832 31.532C475.733 28.5821 475.66 25.6292 475.618 22.6763C475.576 19.7234 475.468 16.7886 476.277 13.9533C477.249 10.545 481.043 5.20627 484.906 8.43666C486.624 9.8754 487.665 11.9777 488.7 13.9202C489.852 16.0798 490.932 18.2756 491.943 20.5076C496.144 29.7705 499.056 39.6215 500.909 49.6143C503.145 61.6762 503.71 74.0096 502.988 86.2465C502.817 89.1541 507.33 89.1451 507.501 86.2465L507.504 86.2495Z" fill="#0E1717"/>
<path d="M475.597 32.7363C473.753 24.1762 470.236 15.96 464.895 8.99852C462.275 5.58112 459.293 2.19088 455.135 0.69784C450.977 -0.795196 446.597 0.20921 443.299 2.74285C436.918 7.64724 436.397 16.2888 437.065 23.6785C437.938 33.3184 439.484 42.904 441.795 52.3026C444.316 62.5427 447.773 72.5234 452.127 82.1211C452.635 83.2431 454.233 83.4935 455.213 82.9325C456.36 82.2779 456.525 80.9417 456.023 79.8378C449.013 64.3796 444.53 47.7451 442.366 30.9175C441.509 24.2426 439.818 15.7881 443.293 9.55049C444.987 6.51012 448.038 4.41384 451.594 4.56465C455.15 4.71546 457.861 7.53263 460.03 10.1025C465.774 16.9101 469.375 25.2711 471.244 33.9367C471.858 36.7811 476.208 35.5776 475.594 32.7333L475.597 32.7363Z" fill="#0E1717"/>
<path d="M440.633 23.4182C437.065 17.7206 432.483 11.7092 424.997 12.3125C417.996 12.8765 413.089 18.544 411.774 25.1918C410.369 32.301 411.975 39.8386 413.074 46.8815C414.382 55.2727 416.049 63.6065 417.909 71.8921C420 81.2063 422.34 90.4601 424.678 99.7139C425.391 102.534 429.745 101.34 429.029 98.5104C425.274 83.6615 421.525 68.7945 418.784 53.7163C417.52 46.7669 416.127 39.6365 415.793 32.5695C415.538 27.1765 416.458 20.7851 421.642 17.8955C424.043 16.5563 427.121 16.3934 429.591 17.6391C432.856 19.286 434.862 22.7154 436.737 25.7045C438.277 28.1658 442.183 25.8976 440.633 23.4212V23.4182Z" fill="#0E1717"/>
<path d="M418.92 57.6708C417.692 51.2371 410.182 50.4227 405.348 53.2097C399.502 56.5819 396.18 63.2478 395.043 69.6965C392.639 83.3329 395.473 97.6781 400.061 110.545C402.582 117.618 405.669 124.471 408.786 131.297C409.298 132.416 410.889 132.669 411.873 132.108C413.02 131.454 413.188 130.118 412.683 129.014C407.851 118.427 403.121 107.71 400.603 96.2936C399.306 90.415 398.659 84.4217 398.777 78.3983C398.894 72.4443 399.634 66.2308 403.193 61.2631C404.761 59.0733 407.017 56.9257 409.692 56.2501C411.906 55.6921 414.115 56.5035 414.566 58.8742C415.111 61.7306 419.461 60.5211 418.917 57.6708H418.92Z" fill="#0E1717"/>
<path d="M509.019 85.373C509.055 71.9779 514.876 58.6582 523.409 48.5086C532.014 38.2745 544.461 30.2212 557.97 28.8578C563.65 28.2847 569.791 28.71 574.704 31.8891C579.566 35.0351 581.618 40.41 579.84 45.9629C577.65 52.8067 571.482 57.7021 565.735 61.5055C559.519 65.6227 553.282 69.4563 548.017 74.8102C537.454 85.551 529.974 100.056 528.807 115.207C528.584 118.111 533.097 118.096 533.32 115.207C534.397 101.208 541.597 87.7015 551.372 77.8415C556.863 72.3037 563.476 68.5967 569.824 64.187C576.034 59.8707 582.142 54.2244 584.326 46.72C586.164 40.3979 584.2 33.8105 579.151 29.5938C574.238 25.4887 567.875 24.0771 561.595 24.1314C547.244 24.255 533.365 31.6297 523.463 41.7311C512.268 53.1506 504.548 69.1969 504.502 85.373C504.493 88.2837 509.006 88.2897 509.015 85.373H509.019Z" fill="#0E1717"/>
<path d="M415.002 142.679C423.712 159.553 440.191 169.749 458.159 171.989C477.812 174.439 498.361 167.515 513.471 154.317C521.937 146.922 529.223 136.964 531.163 125.38C531.637 122.549 527.49 121.335 527.014 124.183C525.398 133.836 519.868 142.083 513.115 148.662C506.362 155.241 497.939 160.48 489.062 163.721C472.512 169.767 453.499 169.776 437.921 160.716C429.779 155.982 423.147 148.98 418.722 140.409C417.407 137.86 413.688 140.13 415.005 142.679H415.002Z" fill="#0E1717"/>
<path d="M375.149 85.185C376.982 99.4247 381.389 113.278 389.05 125.476C390.593 127.934 394.501 125.666 392.946 123.193C385.737 111.713 381.389 98.6163 379.663 85.185C379.506 83.9725 378.736 82.9229 377.406 82.9229C376.308 82.9229 374.993 83.9635 375.149 85.185Z" fill="#0E1717"/>
<path d="M593.153 58.2959C577.761 70.6896 565.007 86.4554 555.969 104.046C554.642 106.631 558.532 108.92 559.865 106.329C568.75 89.0403 581.215 73.6756 596.345 61.4961C597.302 60.7239 597.131 59.1042 596.345 58.2959C595.416 57.3427 594.098 57.5358 593.153 58.2959Z" fill="#0E1717"/>
<path d="M288.218 90.6444C278.941 105.781 272.34 120.591 242.497 106.068C231.881 100.901 252.817 127.457 261.783 129.094C270.751 130.73 280.043 126.647 286.782 120.591C293.522 114.535 298.204 106.68 302.946 99.0419C310.193 87.376 355.934 44.7407 333.806 33.8324C311.679 22.9241 293.863 82.5381 288.214 90.6421L288.218 90.6444Z" fill="#FF84C7"/>
<path d="M286.499 68.4732C287.526 51.0716 285.003 33.345 277.88 17.3671C277.047 15.4994 276.152 13.6615 275.188 11.858C274.307 10.2055 273.376 8.51865 272.006 7.21405C268.99 4.34163 264.805 4.84974 262.109 7.90984C258.938 11.5101 258.814 16.1243 258.885 20.6835C258.963 25.5952 259.143 30.5024 259.433 35.4072C260.072 46.2011 261.248 56.9583 262.954 67.6332C263.1 68.5464 264.239 69.0614 265.061 68.8325C266.033 68.5602 266.403 67.6423 266.257 66.72C264.855 57.9517 263.837 49.1239 263.182 40.2663C262.853 35.8329 262.616 31.395 262.465 26.9525C262.39 24.714 262.335 22.4733 262.303 20.2326C262.271 17.9919 262.189 15.7649 262.803 13.6135C263.54 11.0272 266.419 6.97602 269.351 9.4273C270.654 10.519 271.444 12.1143 272.23 13.5883C273.104 15.2271 273.924 16.8933 274.691 18.587C277.878 25.6158 280.088 33.091 281.494 40.6737C283.191 49.8265 283.62 59.1853 283.072 68.4709C282.942 70.6773 286.366 70.6704 286.496 68.4709L286.499 68.4732Z" fill="#0E1717"/>
<path d="M262.287 27.8663C260.888 21.3708 258.219 15.1361 254.167 9.85364C252.178 7.26046 249.916 4.68787 246.76 3.55493C243.605 2.42198 240.281 3.18414 237.779 5.10672C232.937 8.82827 232.542 15.3856 233.048 20.9931C233.71 28.3081 234.884 35.5818 236.637 42.7136C238.551 50.484 241.174 58.0576 244.477 65.3405C244.863 66.1919 246.076 66.3819 246.82 65.9562C247.69 65.4595 247.815 64.4456 247.434 63.6079C242.114 51.8779 238.713 39.2553 237.071 26.4862C236.42 21.4211 235.137 15.0057 237.774 10.2725C239.06 7.9654 241.375 6.3747 244.073 6.48914C246.772 6.60358 248.829 8.74129 250.475 10.6913C254.833 15.8571 257.566 22.2016 258.984 28.7773C259.45 30.9356 262.751 30.0223 262.285 27.864L262.287 27.8663Z" fill="#0E1717"/>
<path d="M235.756 20.796C233.049 16.4725 229.571 11.911 223.891 12.3687C218.579 12.7967 214.855 17.0974 213.857 22.1418C212.791 27.5365 214.01 33.2561 214.843 38.6004C215.837 44.9678 217.101 51.2917 218.512 57.579C220.099 64.6467 221.875 71.6687 223.649 78.6906C224.19 80.8306 227.494 79.9243 226.95 77.7774C224.101 66.5098 221.257 55.2284 219.177 43.7868C218.218 38.5134 217.161 33.1028 216.907 27.7402C216.713 23.6478 217.412 18.7979 221.346 16.6053C223.167 15.5891 225.503 15.4655 227.377 16.4107C229.855 17.6604 231.377 20.2627 232.8 22.5309C233.969 24.3986 236.932 22.6774 235.756 20.7983V20.796Z" fill="#0E1717"/>
<path d="M219.28 46.7877C218.348 41.9058 212.65 41.2878 208.981 43.4026C204.545 45.9615 202.024 51.0197 201.161 55.9131C199.337 66.2606 201.488 77.1461 204.969 86.91C206.883 92.2772 209.225 97.4773 211.59 102.657C211.978 103.506 213.186 103.698 213.933 103.272C214.802 102.776 214.93 101.762 214.547 100.924C210.88 92.8906 207.291 84.7585 205.38 76.0955C204.396 71.6347 203.905 67.0869 203.995 62.5162C204.084 57.9981 204.645 53.2833 207.346 49.5137C208.535 47.852 210.248 46.2224 212.277 45.7097C213.958 45.2863 215.634 45.902 215.976 47.7009C216.389 49.8684 219.69 48.9506 219.277 46.7877H219.28Z" fill="#0E1717"/>
<path d="M287.647 67.8084C287.674 57.644 292.092 47.5367 298.567 39.835C305.096 32.0692 314.541 25.9581 324.792 24.9236C329.103 24.4887 333.763 24.8114 337.491 27.2238C341.18 29.611 342.737 33.6896 341.388 37.9032C339.726 43.0965 335.046 46.8112 330.685 49.6973C325.968 52.8215 321.235 55.7305 317.24 59.7931C309.224 67.9435 303.549 78.9502 302.663 90.4467C302.494 92.6508 305.918 92.6394 306.087 90.4467C306.905 79.8245 312.368 69.5753 319.786 62.0933C323.952 57.8911 328.97 55.0782 333.788 51.732C338.5 48.4568 343.134 44.1722 344.792 38.4777C346.187 33.6805 344.696 28.6818 340.865 25.4821C337.137 22.367 332.308 21.2959 327.543 21.3371C316.653 21.4309 306.122 27.027 298.608 34.6921C290.113 43.3574 284.254 55.5337 284.22 67.8084C284.213 70.0171 287.638 70.0217 287.645 67.8084H287.647Z" fill="#0E1717"/>
<path d="M216.306 111.293C222.915 124.097 235.42 131.834 249.055 133.534C263.968 135.393 279.56 130.139 291.026 120.124C297.45 114.513 302.979 106.956 304.451 98.1662C304.811 96.0182 301.664 95.0966 301.302 97.2583C300.076 104.583 295.88 110.841 290.756 115.833C285.631 120.825 279.24 124.801 272.504 127.26C259.945 131.848 245.518 131.855 233.697 124.98C227.519 121.387 222.486 116.074 219.128 109.571C218.131 107.637 215.309 109.359 216.308 111.293H216.306Z" fill="#0E1717"/>
<path d="M186.065 67.6648C187.456 78.4701 190.8 88.9825 196.613 98.2383C197.784 100.104 200.75 98.3825 199.57 96.5057C194.099 87.7946 190.8 77.8567 189.49 67.6648C189.371 66.7447 188.787 65.9482 187.778 65.9482C186.944 65.9482 185.947 66.7379 186.065 67.6648Z" fill="#0E1717"/>
<path d="M351.49 47.2615C339.81 56.6661 330.132 68.6295 323.274 81.9777C322.267 83.9392 325.219 85.6764 326.231 83.7103C332.973 70.591 342.431 58.932 353.913 49.6899C354.639 49.104 354.509 47.8749 353.913 47.2615C353.207 46.5383 352.207 46.6847 351.49 47.2615Z" fill="#0E1717"/>
<path d="M92.0648 142.491C83.7046 156.131 77.756 169.478 50.8621 156.39C41.2953 151.734 60.1626 175.665 68.242 177.14C76.3235 178.615 84.6972 174.935 90.7707 169.478C96.8441 164.02 101.064 156.941 105.337 150.058C111.867 139.546 153.088 101.124 133.147 91.2939C113.207 81.4637 97.1519 135.186 92.0606 142.489L92.0648 142.491Z" fill="#FF84C7"/>
<path d="M90.5158 122.512C91.4416 106.83 89.1682 90.8559 82.7491 76.4571C81.9981 74.774 81.1916 73.1178 80.3234 71.4925C79.5293 70.0033 78.6898 68.4832 77.4554 67.3076C74.7375 64.719 70.9663 65.1769 68.5365 67.9346C65.6788 71.179 65.5677 75.3371 65.6314 79.4458C65.7014 83.872 65.8639 88.2942 66.1252 92.7143C66.7013 102.441 67.7609 112.135 69.2978 121.755C69.4294 122.578 70.4561 123.042 71.1968 122.836C72.0732 122.591 72.4065 121.763 72.2748 120.932C71.0116 113.031 70.094 105.075 69.5035 97.0931C69.2072 93.0979 68.9933 89.0986 68.8575 85.0951C68.7896 83.0779 68.7402 81.0587 68.7114 79.0394C68.6826 77.0202 68.6085 75.0133 69.162 73.0745C69.8265 70.7438 72.4209 67.093 75.0626 69.3021C76.2374 70.2859 76.9493 71.7235 77.657 73.0518C78.445 74.5286 79.1836 76.0302 79.8749 77.5565C82.747 83.8906 84.7386 90.6269 86.006 97.4602C87.5346 105.708 87.9214 114.142 87.4277 122.51C87.3104 124.498 90.3965 124.492 90.5138 122.51L90.5158 122.512Z" fill="#0E1717"/>
<path d="M68.697 85.917C67.4358 80.0635 65.0307 74.445 61.3788 69.6846C59.5868 67.3477 57.5479 65.0294 54.7046 64.0084C51.8612 62.9875 48.8656 63.6743 46.6107 65.4069C42.247 68.7606 41.891 74.6699 42.3477 79.7232C42.9444 86.3151 44.0019 92.87 45.582 99.2969C47.3061 106.299 49.6701 113.124 52.6472 119.687C52.9949 120.455 54.0873 120.626 54.7581 120.242C55.5419 119.795 55.6551 118.881 55.3115 118.126C50.5177 107.555 47.4522 96.1804 45.9729 84.6733C45.3865 80.1089 44.2303 74.3275 46.6066 70.0621C47.7649 67.983 49.8511 66.5495 52.283 66.6527C54.7148 66.7558 56.5686 68.6822 58.052 70.4395C61.9796 75.0948 64.4423 80.8122 65.7199 86.7379C66.1397 88.6829 69.1147 87.86 68.695 85.915L68.697 85.917Z" fill="#0E1717"/>
<path d="M44.7885 79.5449C42.3484 75.6487 39.2149 71.538 34.0961 71.9506C29.3085 72.3363 25.9529 76.2118 25.0538 80.7577C24.093 85.6192 25.1916 90.7736 25.9426 95.5896C26.8375 101.328 27.9774 107.027 29.2488 112.692C30.6787 119.062 32.2794 125.39 33.878 131.718C34.3656 133.646 37.3427 132.829 36.853 130.895C34.2854 120.741 31.7218 110.574 29.8475 100.263C28.9834 95.5113 28.0308 90.6354 27.8025 85.8028C27.6276 82.1149 28.2572 77.7443 31.8021 75.7684C33.4439 74.8526 35.5486 74.7412 37.2377 75.5931C39.47 76.7192 40.8423 79.0644 42.1241 81.1084C43.1775 82.7914 45.848 81.2404 44.7885 79.547V79.5449Z" fill="#0E1717"/>
<path d="M29.9403 102.968C29.1009 98.5689 23.9656 98.012 20.6593 99.9178C16.6618 102.224 14.3904 106.782 13.6127 111.192C11.9688 120.517 13.9069 130.326 17.0444 139.125C18.7685 143.962 20.8794 148.648 23.0109 153.316C23.3607 154.081 24.449 154.254 25.1218 153.87C25.9057 153.423 26.0209 152.509 25.6753 151.754C22.3711 144.515 19.1368 137.186 17.4148 129.38C16.528 125.36 16.0857 121.261 16.1659 117.142C16.2462 113.071 16.7523 108.822 19.1862 105.425C20.2581 103.927 21.8012 102.459 23.6302 101.997C25.1444 101.615 26.6546 102.17 26.9632 103.791C27.3356 105.745 30.3106 104.917 29.9382 102.968H29.9403Z" fill="#0E1717"/>
<path d="M91.5511 121.911C91.5758 112.751 95.5569 103.642 101.392 96.702C107.276 89.7037 115.787 84.1966 125.025 83.2643C128.91 82.8724 133.109 83.1633 136.468 85.3372C139.793 87.4885 141.196 91.164 139.98 94.9611C138.483 99.6411 134.265 102.989 130.335 105.59C126.085 108.405 121.82 111.026 118.219 114.688C110.996 122.032 105.881 131.951 105.083 142.312C104.93 144.298 108.017 144.287 108.169 142.312C108.905 132.739 113.829 123.503 120.513 116.76C124.268 112.974 128.79 110.439 133.131 107.423C137.378 104.472 141.554 100.611 143.048 95.4788C144.305 91.1557 142.962 86.6511 139.509 83.7676C136.15 80.9604 131.798 79.9951 127.504 80.0323C117.69 80.1168 108.2 85.1598 101.429 92.0674C93.7731 99.8762 88.4938 110.849 88.4629 121.911C88.4567 123.901 91.5428 123.905 91.549 121.911H91.5511Z" fill="#0E1717"/>
<path d="M27.2604 161.098C33.2166 172.636 44.4852 179.608 56.7723 181.14C70.2114 182.816 84.2628 178.081 94.5953 169.056C100.385 163.999 105.367 157.189 106.694 149.268C107.018 147.332 104.182 146.502 103.856 148.45C102.751 155.051 98.9697 160.69 94.3519 165.189C89.7342 169.688 83.9743 173.27 77.9043 175.487C66.5867 179.621 53.5852 179.627 42.9328 173.432C37.3653 170.194 32.83 165.406 29.8038 159.546C28.905 157.803 26.3616 159.355 27.2624 161.098H27.2604Z" fill="#0E1717"/>
<path d="M0.00871452 121.782C1.26168 131.52 4.27577 140.993 9.51394 149.334C10.5694 151.015 13.242 149.464 12.1783 147.773C7.24875 139.923 4.27578 130.967 3.09483 121.782C2.98784 120.953 2.46115 120.235 1.55177 120.235C0.800818 120.235 -0.0982708 120.947 0.00871452 121.782Z" fill="#0E1717"/>
<path d="M149.084 103.396C138.558 111.871 129.837 122.652 123.657 134.681C122.749 136.448 125.41 138.014 126.321 136.242C132.397 124.42 140.92 113.913 151.267 105.584C151.921 105.056 151.804 103.949 151.267 103.396C150.631 102.744 149.73 102.876 149.084 103.396Z" fill="#0E1717"/>
</svg>
