<svg width="20" height="20" viewBox="0 0 20 20" fill="none" xmlns="http://www.w3.org/2000/svg">
<path d="M20 10.0004C20 15.3023 15.5228 19.6004 10 19.6004C4.47715 19.6004 0 15.3023 0 10.0004C0 4.69846 4.47715 0.400391 10 0.400391C15.5228 0.400391 20 4.69846 20 10.0004Z" fill="#C7C7C7"/>
<path fill-rule="evenodd" clip-rule="evenodd" d="M9.99998 3.59961C9.69316 3.59961 9.44443 3.84834 9.44443 4.15517V9.46628H3.86665C3.57209 9.46628 3.33331 9.70506 3.33331 9.99961C3.33331 10.2942 3.57209 10.5329 3.86665 10.5329H9.44443V15.8441C9.44443 16.1509 9.69316 16.3996 9.99998 16.3996C10.3068 16.3996 10.5555 16.1509 10.5555 15.8441V10.5329H16.1333C16.4279 10.5329 16.6666 10.2942 16.6666 9.99961C16.6666 9.70506 16.4279 9.46628 16.1333 9.46628H10.5555V4.15516C10.5555 3.84834 10.3068 3.59961 9.99998 3.59961Z" fill="white"/>
</svg>
