<svg width="16" height="16" viewBox="0 0 16 16" fill="none" xmlns="http://www.w3.org/2000/svg">
<path fill-rule="evenodd" clip-rule="evenodd" d="M10.8822 3.01867C13.0536 5.19011 13.0536 8.71072 10.8822 10.8822C8.71073 13.0536 5.19012 13.0536 3.01867 10.8822C0.847223 8.71072 0.847223 5.19011 3.01867 3.01867C5.19012 0.847222 8.71073 0.847222 10.8822 3.01867ZM12.332 11.3497C14.5693 8.61957 14.4137 4.58427 11.8651 2.03573C9.1508 -0.678577 4.75004 -0.678576 2.03573 2.03573C-0.678577 4.75003 -0.678577 9.15079 2.03573 11.8651C4.58446 14.4138 8.62017 14.5693 11.3503 12.3315C11.3579 12.3399 11.3657 12.3481 11.3738 12.3561L14.8141 15.7964C15.0855 16.0679 15.5256 16.0679 15.797 15.7964C16.0684 15.525 16.0684 15.0849 15.797 14.8135L12.3567 11.3732C12.3486 11.3651 12.3404 11.3573 12.332 11.3497Z" fill="#059EAF"/>
</svg>
