<svg width="20" height="20" viewBox="0 0 20 20" fill="none" xmlns="http://www.w3.org/2000/svg">
<path fill-rule="evenodd" clip-rule="evenodd" d="M13.6022 3.7732C16.3165 6.48741 16.3165 10.888 13.6022 13.6022C10.888 16.3164 6.48742 16.3164 3.7732 13.6022C1.05899 10.888 1.05899 6.48741 3.7732 3.7732C6.48742 1.05899 10.888 1.05899 13.6022 3.7732ZM15.4145 14.1866C18.211 10.7741 18.0164 5.73014 14.8309 2.54457C11.4381 -0.848191 5.93734 -0.848191 2.54458 2.54457C-0.848192 5.93734 -0.848192 11.4381 2.54458 14.8309C5.73037 18.0166 10.7748 18.211 14.1874 15.4139C14.1969 15.4243 14.2066 15.4346 14.2167 15.4446L18.5169 19.7448C18.8562 20.0841 19.4063 20.0841 19.7455 19.7448C20.0848 19.4056 20.0848 18.8555 19.7455 18.5162L15.4453 14.216C15.4352 14.2059 15.425 14.1961 15.4145 14.1866Z" fill="#D9D9D9"/>
</svg>
