<svg xmlns="http://www.w3.org/2000/svg" width="17" height="16" viewBox="0 0 17 16" fill="none">
<circle cx="8.1167" cy="8" r="8" fill="#1CB09E"/>
<path d="M7.0259 10.667V10.1413C7.03263 9.50995 7.09487 9.00759 7.21262 8.63421C7.33373 8.26084 7.50531 7.95874 7.72735 7.72793C7.9494 7.49712 8.21686 7.28667 8.52973 7.09659C8.73159 6.9676 8.91326 6.82334 9.07475 6.66381C9.23623 6.50428 9.36407 6.32098 9.45827 6.11393C9.55247 5.90688 9.59957 5.67776 9.59957 5.42658C9.59957 5.12448 9.52892 4.86312 9.38762 4.64249C9.24632 4.42186 9.05792 4.25214 8.82242 4.13334C8.59029 4.01114 8.33124 3.95005 8.04528 3.95005C7.78623 3.95005 7.53895 4.00436 7.30346 4.11298C7.06796 4.22159 6.87283 4.39131 6.71807 4.62212C6.56332 4.84954 6.47416 5.14315 6.45061 5.50295H4.9165C4.94005 4.89197 5.09313 4.37603 5.37573 3.95514C5.65833 3.53085 6.03176 3.21008 6.49603 2.99285C6.96366 2.77561 7.48008 2.66699 8.04528 2.66699C8.6643 2.66699 9.20595 2.7841 9.67022 3.01831C10.1345 3.24912 10.4945 3.57328 10.7502 3.99078C11.0092 4.40489 11.1387 4.88858 11.1387 5.44185C11.1387 5.82202 11.0799 6.16484 10.9621 6.47033C10.8444 6.77243 10.6761 7.04228 10.4575 7.27988C10.2421 7.51748 9.9831 7.72793 9.68031 7.91122C9.39435 8.09112 9.16222 8.27781 8.98391 8.47129C8.80897 8.66476 8.68112 8.89388 8.60038 9.15864C8.51964 9.4234 8.4759 9.75095 8.46918 10.1413V10.667H7.0259ZM7.78791 13.3337C7.51204 13.3337 7.27486 13.2352 7.07637 13.0384C6.87787 12.8381 6.77863 12.5971 6.77863 12.3154C6.77863 12.037 6.87787 11.7994 7.07637 11.6026C7.27486 11.4023 7.51204 11.3022 7.78791 11.3022C8.06042 11.3022 8.29592 11.4023 8.49441 11.6026C8.69626 11.7994 8.79719 12.037 8.79719 12.3154C8.79719 12.502 8.75009 12.6735 8.65589 12.8296C8.56506 12.9823 8.44394 13.1045 8.29255 13.1962C8.14116 13.2878 7.97295 13.3337 7.78791 13.3337Z" fill="white"/>
</svg>