<svg xmlns="http://www.w3.org/2000/svg" width="13" height="12" viewBox="0 0 13 12" fill="none">
<path d="M10.3593 10.2426C8.01619 12.5858 4.2172 12.5858 1.87406 10.2426C-0.469087 7.89949 -0.469087 4.10051 1.87406 1.75736C4.2172 -0.585786 8.01619 -0.585786 10.3593 1.75736C12.7025 4.10051 12.7025 7.89949 10.3593 10.2426Z" fill="#929292"/>
<path d="M8.94513 3.17157C8.81495 3.0414 8.6039 3.0414 8.47372 3.17157L6.1167 5.5286L3.75968 3.17157C3.6295 3.0414 3.41845 3.0414 3.28827 3.17157C3.1581 3.30175 3.1581 3.5128 3.28827 3.64298L5.6453 6L3.28827 8.35702C3.1581 8.4872 3.1581 8.69825 3.28827 8.82843C3.41845 8.9586 3.6295 8.9586 3.75968 8.82843L6.1167 6.47141L8.47372 8.82843C8.6039 8.9586 8.81495 8.9586 8.94513 8.82843C9.0753 8.69825 9.0753 8.4872 8.94512 8.35702L6.5881 6L8.94513 3.64298C9.0753 3.5128 9.0753 3.30175 8.94513 3.17157Z" fill="white"/>
</svg>