<svg width="12" height="16" viewBox="0 0 12 16" fill="none" xmlns="http://www.w3.org/2000/svg">
<path fill-rule="evenodd" clip-rule="evenodd" d="M1.5 5C0.671573 5 0 5.67157 0 6.5V14.5C0 15.3284 0.671573 16 1.5 16H10.5C11.3284 16 12 15.3284 12 14.5V6.5C12 5.67157 11.3284 5 10.5 5H10.495C10.3831 2.21659 8.41344 0 5.99999 0C4.69163 0 3.51368 0.651427 2.69144 1.69144L3.40346 2.40346C4.06717 1.52251 5.02048 1 5.99999 1C7.73345 1 9.38486 2.63644 9.49424 5H1.5ZM5 9.20833C5 8.65605 5.44772 8.20833 6 8.20833C6.55228 8.20833 7 8.65605 7 9.20833V11.7917C7 12.344 6.55228 12.7917 6 12.7917C5.44772 12.7917 5 12.344 5 11.7917V9.20833Z" fill="#12C9B3"/>
</svg>
