<svg width="24" height="24" viewBox="0 0 24 24" fill="none" xmlns="http://www.w3.org/2000/svg">
<circle cx="12" cy="12.0005" r="12" fill="#909090"/>
<mask id="mask0_1761_1129" style="mask-type:alpha" maskUnits="userSpaceOnUse" x="0" y="0" width="24" height="25">
<path d="M24 12.0005C24 18.6279 18.6274 24.0005 12 24.0005C5.37258 24.0005 0 18.6279 0 12.0005C0 5.3731 5.37258 0.000518799 12 0.000518799C18.6274 0.000518799 24 5.3731 24 12.0005Z" fill="#8C8C8C"/>
</mask>
<g mask="url(#mask0_1761_1129)">
<path d="M17.5825 7.48856C17.5825 10.5136 15.1202 12.9659 12.0828 12.9659C9.04533 12.9659 6.58301 10.5136 6.58301 7.48856C6.58301 4.46353 9.04533 2.01126 12.0828 2.01126C15.1202 2.01126 17.5825 4.46353 17.5825 7.48856Z" fill="white"/>
<path fill-rule="evenodd" clip-rule="evenodd" d="M22.0834 24.7915H2C2.46279 19.1851 6.78185 14.7915 12.0417 14.7915C17.3016 14.7915 21.6206 19.1851 22.0834 24.7915Z" fill="white"/>
</g>
</svg>
