<svg width="23" height="14" viewBox="0 0 23 14" fill="none" xmlns="http://www.w3.org/2000/svg">
<path fill-rule="evenodd" clip-rule="evenodd" d="M17.4211 2.01317C13.8042 -0.671057 9.1958 -0.671057 5.57888 2.01317L0.682931 5.6466C-0.227644 6.32236 -0.227644 7.67766 0.682932 8.35343L5.57888 11.9869C9.1958 14.671 13.8042 14.671 17.4211 11.9869L22.3171 8.35343C23.2276 7.67766 23.2276 6.32236 22.3171 5.6466L17.4211 2.01317Z" fill="#C9C9C9"/>
<path fill-rule="evenodd" clip-rule="evenodd" d="M11.4253 11.8276C14.1104 11.8276 16.2871 9.66619 16.2871 6.99998C16.2871 4.33378 14.1104 2.1724 11.4253 2.1724C8.74019 2.1724 6.56347 4.33378 6.56347 6.99998C6.56347 9.66619 8.74019 11.8276 11.4253 11.8276ZM14.5855 7.12069C14.5855 8.78707 13.225 10.1379 11.5468 10.1379C9.86865 10.1379 8.5082 8.78707 8.5082 7.12069C8.5082 7.03649 8.51168 6.9531 8.51849 6.87064C8.81008 7.16318 9.21385 7.34426 9.66 7.34426C10.5492 7.34426 11.27 6.62498 11.27 5.7377C11.27 5.12326 10.9243 4.58938 10.4164 4.31914C10.7658 4.18001 11.1473 4.10345 11.5468 4.10345C13.225 4.10345 14.5855 5.45432 14.5855 7.12069Z" fill="white"/>
</svg>
