<svg width="10" height="36" viewBox="0 0 10 36" fill="none" xmlns="http://www.w3.org/2000/svg">
<path d="M9.83317 13.1668C9.61073 12.9444 9.25008 12.9444 9.02764 13.1668L5 17.1945L0.972359 13.1668C0.749918 12.9444 0.389271 12.9444 0.166831 13.1668C-0.0556098 13.3893 -0.0556104 13.7499 0.16683 13.9724L4.19447 18L0.166832 22.0276C-0.0556087 22.2501 -0.0556087 22.6107 0.166832 22.8332C0.389272 23.0556 0.74992 23.0556 0.97236 22.8332L5 18.8055L9.02764 22.8332C9.25008 23.0556 9.61073 23.0556 9.83317 22.8332C10.0556 22.6107 10.0556 22.2501 9.83317 22.0276L5.80553 18L9.83317 13.9724C10.0556 13.7499 10.0556 13.3893 9.83317 13.1668Z" fill="white"/>
</svg>
